<svg fill="#324496" xmlns="http://www.w3.org/2000/svg" viewBox="0 0 32 32">
  <path d="M18.537,2.839c-7.021,0-12.621,3.021-13.375,7.029L0.008,9.737v13.319C0.006,23.06,0.002,23.066,0,23.07 c1.789,2.632,5.475,5.371,11.508,6.093l3.225-2.269v-0.009c1.441,0.306,2.996,0.478,4.636,0.478c5.834,0,10.729-2.092,12.633-5.1 V10.794C32,6.333,26.086,2.839,18.537,2.839z M18.537,4.485c6.404,0,11.816,2.889,11.816,6.309c0,3.418-5.412,6.309-11.816,6.309 c-1.164,0-2.293-0.1-3.363-0.273l4.626-6.551l0.037-0.037L6.849,9.912C7.681,6.893,12.691,4.485,18.537,4.485z M10.062,16.775 c-4.043-0.737-6.836-2.645-7.402-4.911l12.191,0.312L10.062,16.775z M2.066,22.621v-7.602c1.525,1.766,4.086,3.107,7.365,3.742 v8.043C5.828,25.941,3.394,24.267,2.066,22.621z M30.354,21.687c-1.755,2.334-6.076,4.029-10.984,4.029 c-1.637,0-3.205-0.191-4.637-0.529v-6.754c1.203,0.201,2.477,0.314,3.805,0.314c5.156,0,9.549-1.631,11.816-4.086V21.687z"/>
</svg>